# xmcd CD database file
#
# Track frame offsets:
#	150
#	15100
#	59943
#	97218
#	139190
#	153120
#	168558
#	196458
#	229650
#	254030
#
# Disc length: 3804 seconds
#
# Revision: 0
# Processed by: cddbd v1.5.2PL0 Copyright (c) Steve Scherf et al.
# Submitted via: CDex 1.70beta2
#
DISCID=8b0eda0a
DTITLE=Howard Rumsey's Lighthouse All-Stars - Mexican Passport
DYEAR=1996
DGENRE=Jazz
TTITLE0=Viva Zapata! No. 1
TTITLE1=La Soncailli
TTITLE2=Viva Zapata!
TTITLE3=Witch Doctor
TTITLE4=Mambo Los Feliz
TTITLE5=Witch Doctor No. 1
TTITLE6=Witch Doctor No. 2
TTITLE7=Mexican Passport
TTITLE8=Mambo Las Vegas
TTITLE9=Latin for Lovers
EXTD=YEAR: 1996
EXTT0=
EXTT1=
EXTT2=
EXTT3=
EXTT4=
EXTT5=
EXTT6=
EXTT7=
EXTT8=
EXTT9=
PLAYORDER=
